<svg width="46" height="45" viewBox="0 0 46 45" fill="none" xmlns="http://www.w3.org/2000/svg">
<path d="M42.7216 22.5149C42.7234 31.2325 36.7522 38.9297 28.2818 41.1325C26.0983 41.7002 23.8826 41.8886 21.6348 41.7154C13.2667 41.0704 6.11536 34.8979 4.28846 26.7418C2.02191 16.6218 8.20962 6.5129 18.2721 3.89641C25.2922 2.07085 32.6056 4.16288 37.5511 9.44674C40.148 12.2212 41.795 15.4912 42.4235 19.2472C42.6038 20.3242 42.6694 21.4204 42.7877 22.5077C42.7658 22.51 42.7435 22.5122 42.7216 22.5149ZM14.8977 22.9751C11.9192 22.9349 9.41744 25.3706 9.342 28.3263C9.26925 31.174 11.4996 33.89 14.8089 33.9574C17.832 34.019 20.3882 31.5704 20.4346 28.616C20.4833 25.4925 18.0542 23.0179 14.8977 22.9751ZM31.6442 22.056C34.6369 22.0935 37.1561 19.6507 37.1914 16.6767C37.2275 13.6027 34.8065 11.1156 31.7308 11.0683C28.7099 11.0214 26.1385 13.4786 26.1059 16.4432C26.0711 19.5547 28.5001 22.0163 31.6442 22.056ZM28.8286 36.6105C31.9044 36.6056 34.3727 34.1525 34.3638 31.1102C34.3548 28.0706 31.8749 25.6215 28.8063 25.6219C25.7667 25.6223 23.2694 28.1152 23.272 31.1463C23.2743 34.1534 25.7783 36.6154 28.8286 36.6105ZM17.7155 8.42014C14.6428 8.42058 12.1741 10.8706 12.1768 13.9173C12.1794 16.9521 14.6634 19.4079 17.7311 19.4092C20.7712 19.4105 23.2667 16.923 23.2694 13.8888C23.272 10.8858 20.7671 8.41969 17.7155 8.42014ZM23.1596 25.0858C24.5169 25.0872 25.623 24.0012 25.6256 22.664C25.6283 21.32 24.5312 20.2184 23.185 20.2135C21.8183 20.2086 20.7024 21.3039 20.7015 22.6519C20.7006 23.9883 21.8076 25.0845 23.1596 25.0858Z" fill="#A30E7B"/>
<path d="M36.0984 5.80121C36.9281 6.01858 37.6834 6.20694 38.4337 6.41494C39.4339 6.69167 40.4681 6.89208 41.4211 7.2862C43.7907 8.26683 45.1793 10.0888 45.6212 12.6093C45.7792 13.5105 45.7198 14.4188 45.481 15.3097C45.0789 16.8095 44.6816 18.3101 44.2554 19.8187C43.402 14.0876 40.6833 9.44474 36.0984 5.80121Z" fill="#A30E7B"/>
<path d="M26.2729 43.3728C31.9634 42.4368 36.5479 39.7266 40.1102 35.2265C40.1146 35.2814 40.1249 35.3122 40.1177 35.3381C39.7098 36.8543 39.3634 38.3907 38.8769 39.8815C38.023 42.4975 36.1801 44.0588 33.4899 44.6132C32.2 44.8792 30.948 44.6578 29.7027 44.3003C28.6198 43.9892 27.5245 43.7232 26.435 43.4362C26.3975 43.4259 26.3618 43.4076 26.2729 43.3728Z" fill="#A30E7B"/>
<path d="M20.1101 1.60276C14.6691 2.47448 10.165 5.00036 6.56525 9.18798C6.62238 8.96927 6.67683 8.74967 6.73664 8.53185C7.07542 7.29993 7.33073 6.03722 7.77262 4.84369C8.68138 2.38878 10.4962 0.935027 13.0583 0.416819C14.312 0.162847 15.5319 0.361025 16.7442 0.701588C17.7944 0.99707 18.8532 1.26265 19.9083 1.54206C19.9766 1.55991 20.0431 1.58223 20.1101 1.60276Z" fill="#A30E7B"/>
<path d="M9.90313 39.0897C8.97115 38.8442 8.03918 38.5983 7.10676 38.3537C6.19711 38.1149 5.27317 37.9171 4.44386 37.4436C2.41789 36.2862 1.22659 34.5606 0.899862 32.2436C0.738285 31.0974 0.956548 29.9985 1.27256 28.9041C1.54573 27.9578 1.78229 27.0013 2.03626 26.0492C2.04474 26.0166 2.06483 25.9867 2.10187 25.9077C3.06732 31.3005 5.69675 35.6564 9.90313 39.0897Z" fill="#A30E7B"/>
</svg>
