<svg width="45" height="45" viewBox="0 0 45 45" fill="none" xmlns="http://www.w3.org/2000/svg">
<path fill-rule="evenodd" clip-rule="evenodd" d="M22.4556 0.1521H22.5568C34.7983 0.1521 44.722 10.0787 44.722 22.3238V22.425C44.722 34.6701 34.7983 44.5967 22.5568 44.5967H22.4556C10.2142 44.5967 0.290497 34.6701 0.290497 22.425V22.3238C0.290497 10.0787 10.2142 0.1521 22.4556 0.1521ZM15.6328 9.19435H29.3811C33.1794 9.19435 36.2693 12.2852 36.2693 16.0846V28.666C36.2693 32.4653 33.1794 35.5562 29.3811 35.5562H15.6328C11.8346 35.5562 8.74463 32.4653 8.74463 28.666V16.0846C8.74463 12.2852 11.8346 9.19435 15.6328 9.19435ZM15.6328 11.625C13.1749 11.625 11.1746 13.6259 11.1746 16.0846V28.666C11.1746 31.1247 13.1749 33.1256 15.6328 33.1256H29.3811C31.8391 33.1256 33.8394 31.1247 33.8394 28.666V16.0846C33.8394 13.6259 31.8391 11.625 29.3811 11.625H15.6328ZM22.507 28.7827C26.0391 28.7827 28.9142 25.9083 28.9142 22.3737C28.9142 18.839 26.0406 15.9646 22.507 15.9646C18.9734 15.9646 16.0998 18.839 16.0998 22.3737C16.0998 25.9083 18.9734 28.7827 22.507 28.7827ZM22.507 18.3968C24.7003 18.3968 26.4843 20.1813 26.4843 22.3752C26.4843 24.5692 24.7003 26.3536 22.507 26.3536C20.3137 26.3536 18.5298 24.5692 18.5298 22.3752C18.5298 20.1813 20.3137 18.3968 22.507 18.3968ZM31.2333 15.2733C31.2333 16.2262 30.4581 17.0001 29.507 17.0001C28.5543 17.0001 27.7806 16.2262 27.7806 15.2733C27.7806 14.3203 28.5543 13.5465 29.507 13.5465C30.4596 13.5465 31.2333 14.3203 31.2333 15.2733Z" fill="#A30E7B"/>
</svg>
