<svg width="357" height="98" viewBox="0 0 357 98" fill="none" xmlns="http://www.w3.org/2000/svg">
<path d="M91.4549 57.8574C90.5533 59.8179 89.7997 61.8292 88.747 63.6678C86.8806 66.9244 84.2791 69.5429 81.0626 71.4956C78.4179 73.1016 75.4618 73.4575 72.4426 73.3759C67.9592 73.2541 64.2418 71.3985 61.1254 68.2437C60.9544 68.071 60.8403 67.8414 60.64 67.5516C59.6428 68.4794 58.7366 69.2269 57.9429 70.0808C55.7667 72.4188 53.2653 74.3838 50.7161 76.2656C48.2009 78.1212 45.5454 79.7904 42.5647 80.8585C41.2917 81.3147 40.0587 81.8818 38.7779 82.3118C37.4263 82.7664 36.0485 83.1517 34.666 83.5062C33.1741 83.8884 31.6668 84.209 30.1626 84.5389C29.5584 84.6714 28.9481 84.8102 28.3347 84.8487C27.5703 84.8965 26.7997 84.8378 26.0322 84.8378C24.7098 84.8363 23.372 84.9689 22.0666 84.8178C20.174 84.5974 18.3076 84.149 16.4227 83.8469C14.0677 83.4678 12.0534 82.298 9.96197 81.2592C8.22349 80.3961 6.62828 79.4051 5.46929 77.8454C3.88492 75.7169 2.42542 73.4822 1.67639 70.9161C0.898082 68.2483 0.78093 65.5096 1.23096 62.74C1.52687 60.9198 1.8136 59.1382 2.48402 57.3812C3.15291 55.6258 4.03444 54.0692 5.2597 52.6929C6.33084 51.4892 7.44358 50.3163 8.59332 49.1866C9.24833 48.5424 9.95274 47.9012 10.7449 47.4512C12.6499 46.3708 14.5655 45.2766 16.5768 44.4243C18.753 43.5027 21.017 44.2116 22.0712 46.2367C22.7339 47.5098 22.6168 48.8152 21.8986 50.1021C21.0602 51.6063 19.6007 52.2475 18.2089 53.0304C16.0328 54.2557 13.9891 55.6613 12.491 57.7234C11.8576 58.5957 11.107 59.4048 10.6 60.345C9.69683 62.0203 9.27918 63.8558 9.07728 65.7592C8.88001 67.6117 9.42407 69.2377 10.4027 70.7234C11.2489 72.0088 12.4048 72.9782 13.7826 73.7381C15.1189 74.4763 16.5198 74.8539 17.9947 75.0928C19.7917 75.3825 21.575 75.8896 23.3797 75.9635C25.7794 76.0622 28.2175 76.0191 30.5941 75.7047C34.7476 75.1545 38.7302 73.9015 42.5755 72.2015C44.7779 71.2275 46.7706 69.9421 48.597 68.4209C50.2306 67.06 51.7749 65.5759 53.2468 64.0393C54.3287 62.9096 55.2643 61.6334 56.1952 60.3696C56.7438 59.6237 57.1338 58.7622 57.6331 57.9777C58.5486 56.5382 60.2007 55.951 61.6834 56.6568C62.3384 56.9681 62.9179 57.5246 63.4096 58.0779C64.325 59.1074 65.0725 60.2956 66.0388 61.2697C67.1284 62.3686 68.3029 63.4196 69.5806 64.2858C72.0342 65.9488 74.7945 65.8871 77.396 64.8668C81.6313 63.2054 84.4979 60.1986 85.2962 55.5472C85.9266 51.8776 85.2978 48.4252 83.1509 45.3675C81.6975 43.2976 79.6631 41.8489 77.4068 40.7131C76.1137 40.0611 74.8129 39.4755 73.3842 39.1503C72.3963 38.9252 71.4762 38.4028 70.4883 38.1685C68.4693 37.6892 66.6183 36.6458 64.493 36.5024C63.7024 36.4485 62.9441 35.9954 62.1612 35.7612C61.4476 35.547 60.7155 35.3881 59.9973 35.1893C59.5288 35.0599 59.0772 34.8611 58.604 34.7594C57.3911 34.4974 56.1659 34.2985 54.956 34.0257C53.5797 33.716 52.2235 33.3245 50.8456 33.0209C49.3553 32.6926 47.8618 32.3581 46.3514 32.1485C44.9412 31.9528 44.1537 31.0004 43.5587 29.9277C42.651 28.2925 42.8282 26.594 43.978 25.1376C45.0615 23.7644 46.5857 23.2403 48.3427 23.3575C49.7298 23.4499 51.1215 23.5286 52.5117 23.5348C54.3858 23.5425 56.2645 23.5286 58.134 23.4176C59.8355 23.3159 61.5369 23.1248 63.2261 22.8797C66.0588 22.4698 68.9148 22.1322 71.6997 21.4942C75.0087 20.7374 78.276 19.7711 81.5141 18.7493C83.4314 18.1436 85.2731 17.2897 87.1195 16.4791C88.9058 15.6946 90.6827 14.8793 92.4089 13.9715C93.8314 13.224 95.1785 12.3348 96.5471 11.4886C97.6737 10.792 98.8049 10.0985 99.8899 9.34021C100.698 8.77613 101.44 8.11957 102.2 7.48768C102.812 6.97908 103.432 6.47511 103.997 5.91719C104.671 5.25293 105.295 4.53627 105.933 3.83656C106.739 2.95191 107.533 2.05488 108.342 1.17331C109.476 -0.0611969 111.107 -0.343211 112.565 0.430476C112.978 0.649327 113.371 0.915926 113.799 1.09317C115.376 1.74047 116.102 4.49312 115.391 5.84322C114.864 6.84655 114.43 7.90841 113.815 8.85317C113.389 9.50664 112.741 10.0183 112.167 10.5701C111.201 11.5025 110.235 12.4396 109.231 13.3335C108.396 14.0779 107.531 14.7976 106.634 15.4649C105.401 16.3804 104.138 17.2574 102.861 18.1128C101.897 18.7601 100.913 19.3873 99.9008 19.956C98.0498 20.9964 96.2018 22.0521 94.2938 22.9783C92.1823 24.0032 90.0417 24.9927 87.8439 25.808C85.287 26.7559 82.6561 27.5064 80.053 28.3279C78.276 28.8889 76.4913 29.4268 74.7128 29.9801C74.6573 29.997 74.6172 30.0633 74.5401 30.1342C74.6203 30.2174 74.6773 30.3253 74.7636 30.3608C75.7069 30.7476 76.6393 31.173 77.6056 31.492C80.4815 32.446 83.1123 33.8593 85.5413 35.6533C86.6278 36.4547 87.7313 37.2515 88.7193 38.1654C89.6902 39.0639 90.5471 40.092 91.4133 41.0984C92.2471 42.0647 93.1333 43.0094 93.8099 44.0821C94.75 45.5725 95.5222 47.1707 96.3529 48.7289C96.6735 49.3299 96.9971 49.9326 97.256 50.5614C97.6475 51.5154 97.9942 52.4879 98.3364 53.4619C98.4905 53.8996 98.6092 54.3527 98.7155 54.8074C99.1917 56.8541 99.7265 58.8901 100.103 60.9553C100.357 62.3485 100.389 63.7819 100.505 65.1998C100.551 65.7762 100.53 66.3573 100.582 66.9321C100.648 67.6627 100.807 67.7705 101.374 67.3451C102.63 66.4034 103.888 65.451 105.05 64.3983C107.576 62.1112 109.843 59.5698 111.864 56.8341C113.822 54.1802 115.629 51.4136 117.5 48.6965C118.781 46.8363 120.405 45.6064 122.806 45.7559C123.449 45.7959 124.099 45.8021 124.742 45.762C126.59 45.6464 127.81 46.7052 128.932 47.9521C129.882 49.0078 130.457 50.2793 131.001 51.5708C131.152 51.9269 131.388 52.2475 131.699 52.7823C131.924 52.1935 132.081 51.799 132.223 51.3998C132.258 51.2981 132.24 51.1794 132.254 51.0684C132.386 49.9958 132.539 48.9246 132.648 47.8504C132.77 46.6606 132.912 45.4693 132.938 44.2764C132.98 42.3637 132.995 40.4465 132.912 38.5354C132.801 35.977 133.986 34.9181 135.876 33.9872C137.11 33.3784 139.183 34.1074 140.362 35.288C141.456 36.3838 141.815 37.683 141.8 39.1579C141.774 41.889 141.874 44.6277 141.694 47.3495C141.538 49.686 141.096 52.0055 140.718 54.3219C140.516 55.5672 140.22 56.8002 139.9 58.0208C139.457 59.7084 139.012 61.4007 138.454 63.0528C137.976 64.4646 137.352 65.8286 136.763 67.2018C136.269 68.3531 135.8 69.5229 135.199 70.6171C134.045 72.7193 133 74.8955 131.207 76.5878C129.509 78.1906 127.436 78.2923 125.662 76.7558C124.119 75.4195 123.437 73.8675 124.139 71.7823C124.472 70.7959 124.537 69.6862 124.551 68.6305C124.586 65.9827 124.549 63.3349 124.48 60.6871C124.461 60.0136 124.229 59.3432 124.062 58.6789C123.913 58.084 123.722 57.4999 123.537 56.9143C123.507 56.8203 123.41 56.7462 123.255 56.5505C122.792 57.1115 122.348 57.6155 121.942 58.1487C120.178 60.4575 118.408 62.7585 116.678 65.0904C115.108 67.2064 113.291 69.1006 111.32 70.8206C109.438 72.4635 107.416 73.9508 105.4 75.4319C104.39 76.1732 103.273 76.7742 102.18 77.3953C100.449 78.3786 98.4967 78.6607 96.5763 78.858C95.0197 79.0183 93.4061 78.9057 92.2024 77.5741C91.6661 76.9808 91.3486 76.3473 91.3964 75.5366C91.5721 72.5374 91.7108 69.5367 91.9158 66.5391C92.093 63.9545 92.1007 61.3822 91.6768 58.8207C91.609 58.477 91.5181 58.1426 91.4549 57.8574Z" fill="black"/>
<path d="M237.119 74.6535C236.329 73.7334 235.521 72.8056 234.726 71.867C233.086 69.9313 231.799 67.7351 230.967 65.3092C230.21 63.1053 229.794 60.7919 229.609 58.4292C229.298 54.4375 230.133 50.7186 231.817 47.1985C232.924 44.8851 234.536 42.9817 236.359 41.2509C238.3 39.4092 240.531 38.1655 242.987 37.3455C245.214 36.6027 247.513 36.4624 249.816 36.7707C251.172 36.9525 252.559 37.1637 253.84 37.6414C257.517 39.0116 260.663 41.2078 263.013 44.6061C264.58 46.8717 265.738 49.3299 266.399 52.027C267.02 54.5546 267.151 57.1454 266.704 59.7285C266.45 61.2004 266.188 62.6907 265.729 64.0978C264.937 66.5222 263.609 68.6614 262.153 70.6958C261.099 72.1676 260.057 73.6656 258.87 75.0127C257.881 76.1347 256.714 77.0887 255.575 78.052C253.849 79.5099 251.938 80.6642 249.962 81.6984C247.461 83.0069 244.884 84.112 242.1 84.4742C239.24 84.8456 236.358 84.915 233.5 84.4511C230.549 83.9717 227.761 82.919 225.11 81.461C222.498 80.0231 220.109 78.2631 218.093 75.9728C216.219 73.8444 214.613 71.5125 213.311 68.9387C211.874 66.0967 211.289 63.0221 210.855 59.8764C210.518 57.4228 210.421 54.96 210.587 52.5048C210.832 48.8768 211.167 45.2504 212.218 41.7534C212.822 39.7406 213.351 37.6954 214.06 35.7242C214.864 33.4894 215.797 31.3009 217.134 29.3436C218.326 27.6005 219.827 26.3259 221.8 25.6909C223.199 25.2409 224.956 26.3043 225.297 27.8347C225.588 29.1463 225.329 30.407 224.948 31.6215C224.483 33.1041 223.86 34.5297 223.349 35.997C222.485 38.4691 221.538 40.9134 221.075 43.5258C220.765 45.2797 220.325 47.0136 220.095 48.7782C219.697 51.8298 219.77 54.8953 220.036 57.9654C220.254 60.4667 220.953 62.8047 222.059 64.9855C223.267 67.3713 225.101 69.19 227.186 70.725C229.162 72.1799 231.278 73.342 233.616 73.9708C234.801 74.2883 236.03 74.4455 237.119 74.6535ZM257.294 56.0296C257.459 54.5547 257.022 53.0551 256.301 51.6279C255.35 49.7461 253.938 48.3651 252.154 47.4034C250.381 46.4479 248.501 46.2706 246.573 46.6297C243.975 47.1152 241.908 48.51 240.484 50.8773C239.003 53.3371 238.503 56.0311 238.87 58.9255C239.217 61.6596 240.126 64.1209 242.025 66.049C244.645 68.7075 247.669 68.8232 250.682 67.302C252.907 66.1785 254.478 64.2073 255.83 62.0881C256.948 60.3357 257.418 58.3337 257.294 56.0296Z" fill="black"/>
<path d="M204.772 52.2844C205.085 57.5584 204.091 62.6028 202.169 67.5039C201.133 70.1439 199.799 72.6299 198.228 74.9802C197.354 76.2887 196.297 77.4801 195.291 78.6976C193.543 80.8122 191.481 82.6062 189.266 84.2198C187.426 85.5606 185.481 86.7412 183.326 87.5427C181.919 88.0651 180.528 88.6353 179.094 89.0761C178.137 89.3705 177.128 89.5462 176.127 89.651C173.823 89.8914 171.496 90.024 169.217 89.5493C167.509 89.1933 165.795 88.7478 164.185 88.1005C162.07 87.2498 160.171 86.0137 158.405 84.5326C156.337 82.7988 154.698 80.7459 153.344 78.4819C151.912 76.0868 150.952 73.476 150.348 70.7404C149.87 68.575 149.696 66.3849 149.612 64.1794C149.523 61.8029 149.833 59.4602 150.271 57.1315C151.004 53.2291 152.383 49.5564 154.279 46.0579C154.996 44.7355 155.82 43.5288 157.15 42.769C157.667 42.4746 158.279 42.2958 158.869 42.1817C161.299 41.7101 162.868 43.219 163.181 45.2349C163.358 46.38 162.976 47.5036 162.461 48.5408C161.168 51.1439 159.962 53.7701 159.368 56.6383C158.779 59.4865 158.712 62.3253 159.097 65.2105C159.374 67.2849 159.988 69.2285 160.916 71.081C161.791 72.8287 162.938 74.3853 164.428 75.6923C166.196 77.2427 168.199 78.2954 170.483 78.9319C172.751 79.5638 174.993 79.496 177.277 79.16C179.136 78.8872 180.834 78.2152 182.519 77.4169C185.344 76.0791 187.714 74.1741 189.747 71.8731C192.273 69.0142 194.141 65.77 195.258 62.1127C195.937 59.8918 196.362 57.6524 196.416 55.3236C196.464 53.2677 196.162 51.2733 195.856 49.2528C195.56 47.2939 195.624 45.2611 197.148 43.7184C198.931 41.9136 201.157 41.8288 202.881 44.2809C203.724 45.4784 204.119 46.8517 204.321 48.2742C204.51 49.6012 204.624 50.9451 204.772 52.2844Z" fill="black"/>
<path d="M54.4858 47.7856C54.2701 49.3237 54.2516 51.053 52.3621 51.7496C51.667 52.0054 50.9149 52.2197 50.1813 52.2459C48.6586 52.3014 47.1959 52.5511 45.7719 53.0936C43.9609 53.7825 42.3396 54.7966 40.7568 55.8893C39.6826 56.6306 38.5482 57.2918 37.5187 58.0886C34.7091 60.2601 31.9349 62.4795 29.1577 64.6927C28.33 65.3523 27.4716 65.5481 26.442 65.1951C24.6974 64.5987 23.5739 63.0621 23.3519 61.2142C23.0992 59.0997 23.839 57.5029 25.4511 56.2068C27.4932 54.5638 29.449 52.8069 31.565 51.2703C33.1556 50.1175 34.8863 49.1203 36.6556 48.2603C38.8118 47.2107 41.045 46.2968 43.3013 45.4846C44.6021 45.0161 46.0324 44.919 47.3779 44.5568C48.899 44.1468 50.3832 44.3873 51.8627 44.6786C53.1635 44.9344 54.4797 46.528 54.4858 47.7856Z" fill="black"/>
<path d="M96.3683 96.9625C94.6375 97.2291 93.3506 96.5819 92.5076 95.0853C92.3396 94.7863 92.2255 94.4226 92.207 94.082C92.1623 93.2389 92.1454 92.3897 92.1978 91.5482C92.2841 90.1504 93.7282 88.7402 95.3203 88.2747C97.3947 87.6691 99.4707 87.051 101.496 86.302C103.931 85.4019 106.053 83.93 108.155 82.4166C110.264 80.8985 112.008 79.0136 113.819 77.1872C114.628 76.3719 115.562 76.0067 116.721 75.9635C118.386 75.9019 119.714 76.3735 120.639 77.8191C121.794 79.6239 121.801 81.6645 120.246 83.2411C118.3 85.2139 116.332 87.1774 114.232 88.9821C112.781 90.2305 111.144 91.2908 109.493 92.2741C107.815 93.2728 106.061 94.1776 104.259 94.9312C102.636 95.6109 100.915 96.0609 99.218 96.551C98.2933 96.8176 97.33 96.9563 96.3853 97.1521C96.3776 97.0904 96.3729 97.0257 96.3683 96.9625Z" fill="black"/>
<path d="M114.003 34.0812C112.058 34.3863 110.684 33.4616 109.777 31.9035C108.573 29.8398 108.855 27.8285 111.108 26.1886C112.269 25.3441 113.554 25.116 114.964 25.0374C116.182 24.9696 117.389 24.5812 118.585 24.2745C119.546 24.0279 120.49 23.7089 121.431 23.3914C122.136 23.154 122.846 22.9136 123.517 22.5946C124.847 21.9596 126.163 21.2923 127.462 20.5972C129.182 19.6771 130.794 18.589 132.211 17.242C133.433 16.0814 134.885 15.8348 136.509 15.8641C138.076 15.8919 139.989 17.4778 139.917 19.2008C139.881 20.0439 139.951 20.9023 139.812 21.7269C139.73 22.2154 139.439 22.781 139.061 23.0877C137.224 24.5765 135.344 26.013 133.442 27.4201C132.648 28.0073 131.791 28.5251 130.914 28.9828C129.628 29.6533 128.316 30.2852 126.98 30.8508C125.622 31.4257 124.246 31.9759 122.837 32.3998C121.487 32.8051 120.086 33.0393 118.705 33.3414C117.8 33.5402 116.899 33.756 115.985 33.9055C115.333 34.0134 114.664 34.0272 114.003 34.0812Z" fill="black"/>
<path d="M177.311 62.1004C174.198 62.011 171.458 59.9966 170.4 56.9481C169.064 53.0936 170.667 48.6318 174.152 46.5019C178.285 43.9758 183.382 45.7543 185.048 50.3024C186.737 54.9168 184.123 60.2849 179.48 61.6828C178.78 61.8939 178.035 61.9648 177.311 62.1004Z" fill="black"/>
<path d="M259.249 21.8333C259.046 25.5229 257.522 28.3094 254.244 29.9323C250.663 31.7047 246.564 30.3592 244.622 26.8746C241.852 21.9026 244.865 15.314 250.434 14.1689C254.359 13.3613 258.209 16.0106 259.023 20.0963C259.143 20.6974 259.183 21.317 259.249 21.8333Z" fill="black"/>
<path d="M317.164 91.9155C296.833 92.3449 279.643 74.9242 279.752 54.406C279.862 33.7791 296.675 17.4158 316.006 16.9541C337.734 16.4348 354.666 33.9728 354.57 54.6691C354.474 75.2568 337.615 92.2343 317.163 91.9145L317.164 91.9155ZM316.835 73.3006C318.261 73.2302 319.301 73.2869 320.3 73.1099C322.882 72.6531 325.32 71.7425 327.485 70.2441C333.177 66.3034 336.153 60.9151 335.943 53.8974C335.929 53.4269 335.771 52.931 335.567 52.5007C334.509 50.2696 332.036 49.1644 329.68 50.0515C328.005 50.6824 326.952 51.8903 326.655 53.688C326.386 55.3195 326.37 57.0018 325.574 58.5188C324.32 60.9083 322.462 62.6101 319.866 63.3623C318.937 63.6312 317.912 63.5755 316.931 63.6635C315.363 63.8034 313.944 63.3496 312.621 62.5495C309.987 60.9552 308.399 58.6724 308.005 55.5718C307.872 54.5282 307.748 53.4406 307.353 52.483C306.379 50.1141 303.642 49.0734 301.278 50.1024C299.746 50.7694 298.691 51.9832 298.524 53.6401C298.164 57.2131 299.067 60.5513 300.808 63.6694C302.679 67.0193 305.34 69.5496 308.751 71.2848C310.276 72.0604 311.866 72.6912 313.556 72.9671C314.768 73.1646 316.004 73.2194 316.835 73.2996V73.3006ZM307.794 35.6238C305.389 35.5045 302.967 37.801 303.061 40.4683C303.15 43.0084 305.244 45.0897 307.837 45.0633C310.429 45.0369 312.534 42.9369 312.528 40.3822C312.522 37.7785 310.365 35.6101 307.794 35.6238ZM326.59 35.6316C324.17 35.4888 321.844 37.6436 321.854 40.3597C321.863 42.981 323.944 45.0741 326.568 45.076C329.127 45.078 331.335 42.936 331.31 40.4125C331.282 37.6054 329.001 35.5602 326.591 35.6316H326.59Z" fill="#A30E7B"/>
</svg>
