<svg width="46" height="45" viewBox="0 0 46 45" fill="none" xmlns="http://www.w3.org/2000/svg">
<path fill-rule="evenodd" clip-rule="evenodd" d="M22.9738 0.152176H23.075C35.3165 0.152176 45.2401 10.0788 45.2401 22.3239V22.4251C45.2401 34.6701 35.3165 44.5967 23.075 44.5967H22.9738C10.7323 44.5967 0.808685 34.6701 0.808685 22.4251V22.3239C0.808685 10.0788 10.7323 0.152176 22.9738 0.152176ZM9.4087 21.5281C9.34799 21.5561 9.2857 21.5857 9.22343 21.6168L9.22036 21.6153C8.96351 21.7461 8.71911 21.9064 8.59302 22.1602C8.39221 22.5651 8.58365 23.0758 8.91678 23.3795C9.2499 23.6831 9.69511 23.8279 10.1263 23.9618C10.9373 24.2156 11.7515 24.4617 12.5672 24.7014C13.5401 24.988 14.5519 25.2682 15.5575 25.125C16.6814 24.9662 17.659 24.2997 18.5914 23.652C20.0204 22.6593 21.449 21.6663 22.8776 20.6732C24.3062 19.6802 25.7348 18.6871 27.1638 17.6945C27.3911 17.5372 27.6775 17.3721 27.9266 17.4936C28.3454 17.6976 28.1056 18.336 27.8005 18.6895C26.8112 19.8365 25.6661 20.8369 24.522 21.8364C23.1655 23.0214 21.8104 24.2053 20.7178 25.631C20.4749 25.9471 20.2368 26.3022 20.2337 26.7008C20.2274 27.3625 20.8407 27.839 21.3918 28.2034C22.5507 28.971 23.71 29.7387 24.8693 30.5063C26.0287 31.274 27.188 32.0417 28.3469 32.8093C28.9057 33.1783 29.4755 33.5536 30.1215 33.7327C30.7675 33.9102 31.5116 33.8635 32.0346 33.4446C32.6526 32.9495 32.8145 32.0899 32.9328 31.3067C33.6984 26.275 34.4629 21.2421 35.2272 16.2101L35.5355 14.1801C35.66 13.361 35.7425 12.405 35.1541 11.8226C35.0312 11.6996 34.8833 11.6015 34.7229 11.5314C34.2591 11.3306 33.7251 11.3679 33.241 11.4598C33.1174 11.4832 32.9957 11.5156 32.8741 11.5481C32.7446 11.5826 32.6154 11.6171 32.4845 11.6404C32.2657 11.6788 32.0453 11.7841 31.8334 11.8854C31.7527 11.924 31.6733 11.962 31.5956 11.9954C30.9618 12.2665 30.3276 12.538 29.6933 12.8094C29.0596 13.0806 28.426 13.3518 27.7927 13.6226C27.1589 13.8937 26.5246 14.1651 25.8904 14.4366C25.2568 14.7078 24.6231 14.979 23.9898 15.2498C23.356 15.5209 22.7218 15.7923 22.0875 16.0638C21.4539 16.335 20.8202 16.6062 20.187 16.877C19.5534 17.1479 18.9194 17.4192 18.2855 17.6906C17.6515 17.9619 17.0176 18.2332 16.384 18.5042L14.4834 19.3185C14.3244 19.3863 14.1659 19.4541 14.0073 19.5219C13.8491 19.5896 13.6909 19.6573 13.5323 19.7249C13.4399 19.7652 13.347 19.8049 13.2538 19.8447C13.1884 19.8727 13.123 19.9007 13.0575 19.9289C13.0162 19.9468 12.975 19.9643 12.9337 19.9819C12.8925 19.9994 12.8512 20.0169 12.81 20.0348C12.792 20.042 12.7695 20.054 12.7454 20.067C12.6962 20.0934 12.64 20.1236 12.6014 20.1236L12.5441 20.1481C11.4953 20.5977 10.4453 21.0479 9.4087 21.5281Z" fill="#A30E7B"/>
</svg>
