<svg width="45" height="45" viewBox="0 0 45 45" fill="none" xmlns="http://www.w3.org/2000/svg">
<path fill-rule="evenodd" clip-rule="evenodd" d="M22.5933 0.152176H22.4921C10.2506 0.152176 0.326965 10.0788 0.326965 22.3239V22.4251C0.326965 34.6701 10.2506 44.5967 22.4921 44.5967H22.5933C34.8348 44.5967 44.7584 34.6701 44.7584 22.4251V22.3239C44.7584 10.0788 34.8348 0.152176 22.5933 0.152176ZM26.8724 28.8747C21.186 28.8747 16.5596 24.2454 16.558 18.5573C16.5596 17.1154 17.7333 15.9429 19.1716 15.9429C19.3195 15.9429 19.4658 15.9553 19.6059 15.9803C19.9142 16.0316 20.2068 16.136 20.4761 16.2932C20.515 16.3166 20.5415 16.354 20.5477 16.3976L21.1486 20.186C21.1564 20.2296 21.1424 20.2748 21.1128 20.3075C20.7812 20.6749 20.3578 20.9396 19.8861 21.072L19.6589 21.1358L19.7445 21.3554C20.5197 23.3298 22.0982 24.9072 24.0735 25.6857L24.293 25.7729L24.3568 25.5456C24.4892 25.0738 24.7538 24.6502 25.1212 24.3186C25.1476 24.2937 25.1834 24.2812 25.2192 24.2812C25.227 24.2812 25.2348 24.2812 25.2441 24.2828L29.0315 24.8838C29.0766 24.8916 29.114 24.9165 29.1373 24.9554C29.293 25.2248 29.3973 25.5191 29.4502 25.8274C29.4751 25.9644 29.486 26.1092 29.486 26.2603C29.486 27.7006 28.3139 28.8731 26.8724 28.8747ZM32.4857 12.0735C35.062 14.445 36.6498 17.6604 36.9564 21.1265L36.9549 21.1281C36.9922 21.5345 37.0109 21.9549 37.0109 22.3753V22.4501C36.9735 29.0538 32.2553 34.7917 25.7921 36.0981C25.3594 36.1853 24.9188 36.2538 24.483 36.3005C23.988 36.3519 23.4945 36.3769 23.0135 36.3769C21.1844 36.3769 19.4067 36.0281 17.7271 35.3398L8.06809 36.3691L11.0849 29.6891C9.73215 27.4904 9.01766 24.9664 9.01766 22.3753C9.01766 14.6552 15.2972 8.3738 23.0151 8.3738C26.5315 8.3738 29.8939 9.688 32.4857 12.0735ZM12.7552 32.9777L18.0992 32.4078L18.1007 32.4109L18.3031 32.509C18.4416 32.5759 18.5895 32.6413 18.7405 32.7021C20.0995 33.2689 21.5378 33.5554 23.0182 33.5554C23.4338 33.5554 23.8525 33.532 24.2604 33.4853C24.6526 33.4433 25.0465 33.3779 25.431 33.2922C30.4683 32.1773 34.0688 27.7987 34.1871 22.6432L34.1874 22.6254C34.1889 22.5402 34.1903 22.46 34.1903 22.3784C34.1903 22.0732 34.1762 21.7634 34.1513 21.4551C33.6797 15.7047 28.7871 11.2 23.0151 11.2C16.8538 11.2 11.8414 16.2138 11.8414 22.3769C11.8414 24.7406 12.5731 27.0015 13.9585 28.9152C13.9849 28.951 14.0083 28.9821 14.0316 29.0133L14.3507 29.4415L12.7552 32.9777Z" fill="#A30E7B"/>
</svg>
